<svg width="128" height="25" viewBox="0 0 128 25" fill="none" xmlns="http://www.w3.org/2000/svg">
<path d="M11.2472 0.727272H16.7926V16.8182C16.785 18.3258 16.4252 19.6439 15.7131 20.7727C15.0009 21.8939 14.0161 22.7652 12.7585 23.3864C11.5085 24.0076 10.0616 24.3182 8.41761 24.3182C6.96307 24.3182 5.6411 24.0644 4.4517 23.5568C3.26989 23.0492 2.3267 22.2614 1.62216 21.1932C0.925189 20.125 0.580492 18.7576 0.588068 17.0909H6.19034C6.21307 17.6894 6.3267 18.2008 6.53125 18.625C6.74337 19.0417 7.03504 19.3561 7.40625 19.5682C7.77746 19.7803 8.22064 19.8864 8.7358 19.8864C9.27367 19.8864 9.72822 19.7727 10.0994 19.5455C10.4706 19.3106 10.7509 18.9659 10.9403 18.5114C11.1373 18.0568 11.2396 17.4924 11.2472 16.8182V0.727272ZM28.4716 24.3295C26.6383 24.3295 25.0625 23.9545 23.7443 23.2045C22.4337 22.447 21.4223 21.3939 20.7102 20.0455C20.0057 18.6894 19.6534 17.1174 19.6534 15.3295C19.6534 13.5341 20.0057 11.9621 20.7102 10.6136C21.4223 9.25758 22.4337 8.20454 23.7443 7.45454C25.0625 6.69697 26.6383 6.31818 28.4716 6.31818C30.3049 6.31818 31.8769 6.69697 33.1875 7.45454C34.5057 8.20454 35.517 9.25758 36.2216 10.6136C36.9337 11.9621 37.2898 13.5341 37.2898 15.3295C37.2898 17.1174 36.9337 18.6894 36.2216 20.0455C35.517 21.3939 34.5057 22.447 33.1875 23.2045C31.8769 23.9545 30.3049 24.3295 28.4716 24.3295ZM28.5057 20.1364C29.1723 20.1364 29.7367 19.9318 30.1989 19.5227C30.661 19.1136 31.0133 18.5455 31.2557 17.8182C31.5057 17.0909 31.6307 16.25 31.6307 15.2955C31.6307 14.3258 31.5057 13.4773 31.2557 12.75C31.0133 12.0227 30.661 11.4545 30.1989 11.0455C29.7367 10.6364 29.1723 10.4318 28.5057 10.4318C27.8163 10.4318 27.233 10.6364 26.7557 11.0455C26.286 11.4545 25.9261 12.0227 25.6761 12.75C25.4337 13.4773 25.3125 14.3258 25.3125 15.2955C25.3125 16.25 25.4337 17.0909 25.6761 17.8182C25.9261 18.5455 26.286 19.1136 26.7557 19.5227C27.233 19.9318 27.8163 20.1364 28.5057 20.1364ZM40.1364 24V0.727272H45.6932V9.53409H45.8068C46.0341 9.00379 46.3561 8.49242 46.7727 8C47.197 7.50758 47.7348 7.10606 48.3864 6.79545C49.0455 6.47727 49.8333 6.31818 50.75 6.31818C51.9621 6.31818 53.0947 6.63636 54.1477 7.27273C55.2083 7.90909 56.0644 8.89015 56.7159 10.2159C57.3674 11.5417 57.6932 13.2311 57.6932 15.2841C57.6932 17.2614 57.3788 18.9167 56.75 20.25C56.1288 21.5833 55.2879 22.5833 54.2273 23.25C53.1742 23.9167 52.0038 24.25 50.7159 24.25C49.8371 24.25 49.0758 24.1061 48.4318 23.8182C47.7879 23.5303 47.2462 23.1515 46.8068 22.6818C46.375 22.2121 46.0417 21.7083 45.8068 21.1705H45.6364V24H40.1364ZM45.5795 15.2727C45.5795 16.2121 45.7045 17.0303 45.9545 17.7273C46.2121 18.4242 46.5795 18.9659 47.0568 19.3523C47.5417 19.7311 48.1212 19.9205 48.7955 19.9205C49.4773 19.9205 50.0568 19.7311 50.5341 19.3523C51.0114 18.9659 51.3712 18.4242 51.6136 17.7273C51.8636 17.0303 51.9886 16.2121 51.9886 15.2727C51.9886 14.3333 51.8636 13.5189 51.6136 12.8295C51.3712 12.1402 51.0114 11.6061 50.5341 11.2273C50.0644 10.8485 49.4848 10.6591 48.7955 10.6591C48.1136 10.6591 47.5341 10.8447 47.0568 11.2159C46.5795 11.5871 46.2121 12.1174 45.9545 12.8068C45.7045 13.4962 45.5795 14.3182 45.5795 15.2727ZM58.5625 5.29545V0.727272H78.233V5.29545H71.1761V24H65.6307V5.29545H58.5625ZM79.1676 24V6.54545H84.5653V9.72727H84.7472C85.0653 8.57576 85.5843 7.7197 86.304 7.15909C87.0237 6.59091 87.8608 6.30682 88.8153 6.30682C89.0729 6.30682 89.3381 6.32576 89.6108 6.36364C89.8835 6.39394 90.1373 6.44318 90.3722 6.51136V11.3409C90.107 11.25 89.7585 11.178 89.3267 11.125C88.9025 11.072 88.5237 11.0455 88.1903 11.0455C87.5313 11.0455 86.9366 11.1932 86.4062 11.4886C85.8835 11.7765 85.4706 12.1818 85.1676 12.7045C84.8722 13.2197 84.7244 13.8258 84.7244 14.5227V24H79.1676ZM96.9006 24.2955C95.7869 24.2955 94.7983 24.1098 93.9347 23.7386C93.0786 23.3598 92.4006 22.7917 91.9006 22.0341C91.4081 21.2689 91.1619 20.3106 91.1619 19.1591C91.1619 18.1894 91.3324 17.3712 91.6733 16.7045C92.0142 16.0379 92.4839 15.4962 93.0824 15.0795C93.6809 14.6629 94.3703 14.3485 95.1506 14.1364C95.9309 13.9167 96.7642 13.7689 97.6506 13.6932C98.643 13.6023 99.4422 13.5076 100.048 13.4091C100.654 13.303 101.094 13.1553 101.366 12.9659C101.647 12.7689 101.787 12.4924 101.787 12.1364V12.0795C101.787 11.4962 101.586 11.0455 101.185 10.7273C100.783 10.4091 100.241 10.25 99.5597 10.25C98.8248 10.25 98.2339 10.4091 97.7869 10.7273C97.34 11.0455 97.0559 11.4848 96.9347 12.0455L91.8097 11.8636C91.9612 10.803 92.3513 9.85606 92.9801 9.02273C93.6165 8.18182 94.4877 7.52273 95.5938 7.04545C96.7074 6.56061 98.0445 6.31818 99.6051 6.31818C100.719 6.31818 101.745 6.45076 102.685 6.71591C103.624 6.97348 104.442 7.35227 105.139 7.85227C105.836 8.3447 106.374 8.95076 106.753 9.67045C107.139 10.3902 107.332 11.2121 107.332 12.1364V24H102.105V21.5682H101.969C101.658 22.1591 101.26 22.6591 100.776 23.0682C100.298 23.4773 99.7339 23.7841 99.0824 23.9886C98.4384 24.1932 97.7112 24.2955 96.9006 24.2955ZM98.6165 20.6591C99.215 20.6591 99.7528 20.5379 100.23 20.2955C100.715 20.053 101.101 19.7197 101.389 19.2955C101.677 18.8636 101.821 18.3636 101.821 17.7955V16.1364C101.662 16.2197 101.469 16.2955 101.241 16.3636C101.022 16.4318 100.779 16.4962 100.514 16.5568C100.249 16.6174 99.9763 16.6705 99.696 16.7159C99.4157 16.7614 99.1468 16.803 98.8892 16.8409C98.3665 16.9242 97.9195 17.053 97.5483 17.2273C97.1847 17.4015 96.9044 17.6288 96.7074 17.9091C96.518 18.1818 96.4233 18.5076 96.4233 18.8864C96.4233 19.4621 96.6278 19.9015 97.0369 20.2045C97.4536 20.5076 97.9801 20.6591 98.6165 20.6591ZM115.741 19.4205L115.764 12.7955H116.537L121.446 6.54545H127.741L120.446 15.5H118.98L115.741 19.4205ZM110.73 24V0.727272H116.287V24H110.73ZM121.571 24L117.003 16.75L120.662 12.8068L127.991 24H121.571Z" fill="#2CB1BC"/>
</svg>
